
<svg id="logoipsum" data-name="logoipsum" xmlns="http://www.w3.org/2000/svg" viewBox="20 30 30 40"><title>logoipsum-2</title><path d="M35.94,53.55v7.23a1,1,0,0,1-2.09,0V53.56a1.77,1.77,0,0,0,1,.34A1.72,1.72,0,0,0,35.94,53.55Zm8.9-2.09a1,1,0,0,0-1,1v1.26a1,1,0,1,0,2.09,0V52.51A1,1,0,0,0,44.84,51.46ZM31.58,56.29a1.8,1.8,0,0,1-1-.34V63.2a1.05,1.05,0,0,0,2.1,0V56A1.83,1.83,0,0,1,31.58,56.29Zm10-7a1,1,0,0,0-1.05,1v5.57a1.05,1.05,0,1,0,2.1,0V50.36A1,1,0,0,0,41.53,49.31Zm-3.32,2.14a1.83,1.83,0,0,1-1.05-.34v7.27a1.05,1.05,0,1,0,2.1,0V51.1A1.77,1.77,0,0,1,38.21,51.45ZM29.31,57V36.69a.94.94,0,0,0-.94-.93h-.22a.94.94,0,0,0-.94.93V57a.94.94,0,0,0,.94.94h.22A.94.94,0,0,0,29.31,57Zm2.38-1.48h-.22a.94.94,0,0,1-.94-.94V39.11a.94.94,0,0,1,.94-.93h.22a.94.94,0,0,1,.94.93V54.6A.94.94,0,0,1,31.69,55.54ZM35,53.14h-.23a.93.93,0,0,1-.93-.93V41.51a.93.93,0,0,1,.93-.94H35a.94.94,0,0,1,.93.94v10.7A.93.93,0,0,1,35,53.14Zm3.31-2.45H38.1a.94.94,0,0,1-.94-.93V44A.94.94,0,0,1,38.1,43h.22a.94.94,0,0,1,.94.94v5.8A.94.94,0,0,1,38.32,50.69Zm3.32-2.15h-.22a.94.94,0,0,1-.94-.94V46.11a.94.94,0,0,1,.94-.93h.22a.94.94,0,0,1,.94.93V47.6A.94.94,0,0,1,41.64,48.54Z" style="fill:#000000"/></svg>
